<?xml version="1.0" standalone="no"?><!DOCTYPE svg PUBLIC "-//W3C//DTD SVG 1.1//EN" "http://www.w3.org/Graphics/SVG/1.1/DTD/svg11.dtd"><svg t="1713174940471" class="icon" viewBox="0 0 1024 1024" version="1.1" xmlns="http://www.w3.org/2000/svg" p-id="1031" xmlns:xlink="http://www.w3.org/1999/xlink" width="200" height="200"><path d="M788.833862 293.636128a291.285754 291.285754 0 0 0-582.270177 15.106682 293.294621 293.294621 0 0 0 227.92608 286.444383 296.589163 296.589163 0 0 1 0.90399 171.93895 472.385138 472.385138 0 0 0 353.84188-458.403422c-0.040177-5.062346-0.261153-10.064425-0.401773-15.086593z" fill="#2E88FC" p-id="1032"></path><path d="M435.373667 782.333268a15.066504 15.066504 0 0 1-10.90815-4.700749 15.28748 15.28748 0 0 1-3.555695-14.885707 281.50257 281.50257 0 0 0 1.566917-154.803311 308.401303 308.401303 0 1 1 381.443716-315.090831v0.30133l0.120532 3.455252c0.140621 4.017735 0.281241 8.035469 0.281242 12.053203a487.592263 487.592263 0 0 1-365.232158 473.148507 15.106682 15.106682 0 0 1-3.716404 0.522306zM497.889616 30.434339a278.46918 278.46918 0 0 0-60.145486 549.887237 15.146859 15.146859 0 0 1 11.149213 10.325577 312.037352 312.037352 0 0 1 7.513164 154.68278A456.715973 456.715973 0 0 0 774.108865 308.74281c0-3.63605-0.120532-7.252011-0.261153-11.088947l-0.100443-3.374897A276.841998 276.841998 0 0 0 497.869527 30.434339z" fill="#005FD9" p-id="1033"></path><path d="M277.376256 201.790717a291.044689 291.044689 0 0 0-58.940165 23.865343 293.75666 293.75666 0 0 0 216.013497 369.490956 296.448542 296.448542 0 0 1 1.004433 171.597442 293.334798 293.334798 0 0 0-158.077765-564.97383z" fill="#FFFFFF" p-id="1034"></path><path d="M435.454021 781.991761a15.046416 15.046416 0 0 1-10.74744-4.519952 15.307569 15.307569 0 0 1-3.716404-15.046416 281.241417 281.241417 0 0 0 1.486562-154.481892 308.481657 308.481657 0 0 1-231.019736-299.22078 311.173539 311.173539 0 0 1 12.515243-87.345548 15.187037 15.187037 0 0 1 7.372543-9.120258 307.015184 307.015184 0 0 1 61.993644-25.110841 308.562012 308.562012 0 0 1 166.273944 594.263115 14.845529 14.845529 0 0 1-4.158356 0.582572zM231.212486 236.142347a281.080708 281.080708 0 0 0 2.932947 155.546592 277.404481 277.404481 0 0 0 203.598697 188.612548 15.146859 15.146859 0 0 1 11.149213 10.325578 311.816377 311.816377 0 0 1 7.87476 152.874799 279.433437 279.433437 0 0 0 165.108801-333.994272 275.214815 275.214815 0 0 0-390.664418-173.345156z" fill="#005FD9" p-id="1035"></path><path d="M821.799374 387.570762a77.281124 77.281124 0 0 0-106.972182 2.772236 78.687331 78.687331 0 0 0 0 110.688587 77.220858 77.220858 0 0 0 96.586338 10.707262 78.345823 78.345823 0 0 1 32.362852 32.24232 126.859968 126.859968 0 0 0-19.084239-153.658257l-2.892769-2.752148z" fill="#A8E12C" p-id="1036"></path><path d="M843.776382 559.208381h-0.321419a15.086593 15.086593 0 0 1-12.977283-8.035469 63.319496 63.319496 0 0 0-19.325303-21.856476 92.267274 92.267274 0 0 1-107.012359-17.5575 94.095343 94.095343 0 0 1 0-132.203555 92.207007 92.207007 0 0 1 127.784047-3.314631l0.220975 0.200887 0.642838 0.60266c0.883902 0.823636 1.747715 1.647271 2.611527 2.511084a141.926472 141.926472 0 0 1 21.374348 172.200102 15.086593 15.086593 0 0 1-12.997371 7.452898z m-32.342763-62.696748a14.98615 14.98615 0 0 1 7.010946 1.747715 92.407894 92.407894 0 0 1 22.09754 16.372268 111.351513 111.351513 0 0 0-26.617491-113.541178l-1.848158-1.787892-0.582571-0.542394a62.274885 62.274885 0 0 0-86.059874 2.330286 63.460117 63.460117 0 0 0 0 89.173618 62.154353 62.154353 0 0 0 77.803429 8.638129 15.046416 15.046416 0 0 1 8.196179-2.370463z" fill="#005FD9" p-id="1037"></path><path d="M164.457827 891.374583a117.398203 116.53439 90 1 0 233.06878 0 117.398203 116.53439 90 1 0-233.06878 0Z" fill="#FF279D" p-id="1038"></path><path d="M280.992217 1023.979911a132.58524 132.58524 0 1 1 131.641072-132.585239 132.283909 132.283909 0 0 1-131.641072 132.585239z m0-234.796406a102.191078 102.191078 0 1 0 101.427708 102.191078 101.909836 101.909836 0 0 0-101.427708-102.191078z" fill="#005FD9" p-id="1039"></path><path d="M206.824838 771.846981a76.839173 76.27669 90 1 0 152.55338 0 76.839173 76.27669 90 1 0-152.55338 0Z" fill="#FFD52B" p-id="1040"></path><path d="M283.101528 863.913368a92.066387 92.066387 0 1 1 91.383372-92.066387 91.825323 91.825323 0 0 1-91.383372 92.066387z m0-153.698435a61.632048 61.632048 0 1 0 61.170008 61.632048 61.471338 61.471338 0 0 0-61.170008-61.632048z" fill="#005FD9" p-id="1041"></path></svg>